<?xml version="1.0" encoding="utf-8"?>
<!-- Generator: Adobe Illustrator 19.2.1, SVG Export Plug-In . SVG Version: 6.00 Build 0)  -->
<svg version="1.1" xmlns="http://www.w3.org/2000/svg" xmlns:xlink="http://www.w3.org/1999/xlink" x="0px" y="0px"
	 viewBox="0 0 434 160" width="118px" height="42px" style="enable-background:new 0 0 434 160;" xml:space="preserve">
<style type="text/css">
	.st0{fill:#F68C28;}
	.st1{fill:#A9ACAE;}
	.st2{fill:#555D63;}
</style>
<g id="Layer_1">
	<rect x="8.3" y="131" class="st0" width="402.3" height="20.7"/>
</g>
<g id="Layer_3">
	<path class="st1" d="M375.1,34.8v28.5h2.5l21.3-28.5h12.5l-24.6,29.8c9.1,1.1,14.6,8.2,19,20c1.5,4.3,3.5,10.7,6.1,16H401
		c-1.5-2.9-3.5-8-5.3-13.5c-3.9-10.6-9.1-15.5-18.7-15.5h-2v28.9h-10.2V34.8H375.1z"/>
	<path class="st1" d="M276.2,100.6l-0.8-8.3H275c-3.2,5.2-9.2,9.8-17.3,9.8c-11.4,0-17.3-9.4-17.3-18.9c0-15.9,12.1-24.6,34-24.5
		v-1.4c0-5.4-1.3-15.2-12.8-15.2c-5.3,0-10.7,1.9-14.7,4.9l-2.3-7.9c4.7-3.5,11.4-5.8,18.6-5.8c17.3,0,21.5,13.7,21.5,26.9v24.6
		c0,5.7,0.2,11.3,0.9,15.8H276.2z M274.6,67c-11.2-0.3-23.9,2-23.9,14.8c0,7.7,4.4,11.4,9.7,11.4c7.4,0,12-5.4,13.7-11
		c0.3-1.2,0.6-2.6,0.6-3.8V67z"/>
	<path class="st1" d="M225.6,9v9.9h-34v24.6c2.5-0.4,7.1-0.7,9.7-0.7c7.5,0,14.8,1.9,20.3,6.1c6,4.5,10,11.7,10,22.4
		c0,8.6-2.5,15.1-6.5,19.8c-6.4,7.3-17,10.2-27.8,10.2c-7.1,0-12.5-0.5-15.9-1.1V9H225.6z M191.6,91.5c2.3,0.5,5,0.7,8.5,0.7
		c6.3,0,12.7-2.3,16.6-7.1c2.7-3.3,4.3-7.7,4.3-13.5c0-7.1-2.6-11.8-6.4-15c-4.1-3.3-9.3-4.6-14.9-4.6c-2.3,0-5.5,0.3-8.1,0.5V91.5z
		"/>
	<polygon class="st1" points="311.1,34.8 311.1,61.3 337.9,61.3 337.9,34.8 348.1,34.8 348.1,100.6 337.9,100.6 337.9,70.8 
		311.1,70.8 311.1,100.6 300.9,100.6 300.9,34.8 	"/>
</g>
<g id="Layer_2">
	<path class="st2" d="M8.4,10.2c5.5-1.1,13.2-1.9,24.1-1.9c11,0,18.8,2.4,24.1,7.3c5,4.6,8.4,12.2,8.4,21.2c0,9-2.6,16.6-7.2,21.7
		c-6.1,6.7-15.1,9.6-25.6,9.6c-2.3,0-4.4-0.1-6.1-0.4v32.8H8.4V10.2z M26,51.8c1.5,0.4,3.4,0.5,6,0.5c9.5,0,15.3-5.6,15.3-14.9
		c0-8.4-5-13.5-13.9-13.5c-3.6,0-6.1,0.4-7.4,0.8V51.8z"/>
	<polygon class="st2" points="94.1,9 94.1,44.2 123.4,44.2 123.4,9 141.2,9 141.2,100.6 123.4,100.6 123.4,62.3 94.1,62.3 
		94.1,100.6 76.2,100.6 76.2,9 	"/>
</g>
</svg>
