<?xml version="1.0" encoding="utf-8"?>
<!-- Generator: Adobe Illustrator 19.2.1, SVG Export Plug-In . SVG Version: 6.00 Build 0)  -->
<svg version="1.1" id="Layer_1" xmlns="http://www.w3.org/2000/svg" xmlns:xlink="http://www.w3.org/1999/xlink" x="0px" y="0px"
	 viewBox="0 0 145 30" enable-background="new 0 0 145 30" xml:space="preserve" width="145" height="30">
<g>
	<path fill="#0073AE" d="M132.2,18.5h-4.6l2.3-6.1L132.2,18.5z M123.7,18.5h-1.3v3.3h15.2v-3.3h-1.3l-3.7-8.9l-0.1-0.3l-0.2-0.3
		L132,8.8l-0.3-0.3l-0.3-0.2l-0.4-0.2l-0.5-0.1l-0.5,0l-0.5,0L129,8.1l-0.4,0.1l-0.4,0.2l-0.3,0.3L127.7,9l-0.2,0.3l-0.1,0.3
		L123.7,18.5z M114.4,18.5v-7h0.8l0.3,0l0.3,0l0.3,0l0.3,0.1l0.3,0.1l0.2,0.1l0.2,0.2l0.2,0.2l0.1,0.2l0.1,0.2l0.1,0.3l0.1,0.3
		l0,0.4l0,0.4l0,0.5l0,0.5l0,0.4l0,0.4l0,0.4l0,0.3l-0.1,0.3l-0.1,0.3l-0.1,0.3l-0.1,0.2l-0.1,0.2l-0.2,0.2l-0.2,0.1l-0.2,0.1
		l-0.3,0.1l-0.3,0.1l-0.4,0l-0.5,0H114.4z M110.5,18.5h-0.7l-0.5,0l-0.4,0l-0.3-0.1l-0.3-0.1l-0.2-0.1l-0.2-0.1l-0.2-0.2l-0.1-0.2
		l-0.1-0.2l-0.1-0.3l-0.1-0.3l-0.1-0.3l0-0.3l0-0.4l0-0.4l0-0.4l0-0.6l0-0.5l0-0.5l0.1-0.4l0.1-0.3l0.1-0.3l0.1-0.2l0.1-0.1l0.2-0.2
		l0.2-0.2l0.3-0.1l0.3-0.1l0.3-0.1l0.3,0l0.3,0l0.3,0h0.8V18.5z M110.5,4.2v4h-1.9l-0.3,0l-0.3,0l-0.3,0l-0.3,0l-0.3,0l-0.3,0.1
		l-0.3,0.1l-0.3,0.1l-0.3,0.1l-0.3,0.2L105.3,9L105,9.2l-0.3,0.2l-0.3,0.3l-0.3,0.3l-0.2,0.3l-0.2,0.3l-0.1,0.3l-0.1,0.3l-0.1,0.3
		l-0.1,0.3l-0.1,0.3l-0.1,0.3l-0.1,0.3l0,0.3l0,0.3l0,0.3l0,0.3l0,0.3l0,0.3l0,0.3v0.3l0,0.3l0,0.3l0,0.3l0,0.3l0,0.3l0,0.3l0,0.3
		l0.1,0.3l0.1,0.3l0.1,0.3l0.1,0.3l0.1,0.3l0.1,0.3l0.1,0.3l0.2,0.3l0.2,0.3l0.3,0.3l0.3,0.3l0.3,0.3l0.3,0.2l0.3,0.2l0.3,0.2
		l0.3,0.1l0.3,0.1l0.3,0.1l0.3,0.1l0.3,0l0.3,0l0.3,0l0.3,0l0.2,0l0.2,0h1.8v4h3.9v-4h1.8l0.2,0l0.3,0l0.3,0l0.3,0l0.3,0l0.3,0
		l0.3-0.1l0.3-0.1l0.3-0.1l0.3-0.1l0.3-0.2l0.3-0.2l0.3-0.2l0.3-0.3l0.3-0.3l0.3-0.3l0.2-0.3l0.2-0.3l0.1-0.3l0.1-0.3l0.1-0.3
		l0.1-0.3l0.1-0.3l0.1-0.3l0.1-0.3l0-0.3l0-0.3l0-0.3l0-0.3l0-0.3l0-0.3v-0.3v-0.3v-0.3l0-0.3l0-0.3l0-0.3l0-0.3l0-0.3l0-0.3
		l-0.1-0.3l-0.1-0.3l-0.1-0.3l-0.1-0.3l-0.1-0.3l-0.1-0.3l-0.1-0.3l-0.2-0.3l-0.2-0.3l-0.3-0.3l-0.3-0.3l-0.3-0.2L119.5,9l-0.3-0.2
		l-0.3-0.2l-0.3-0.1l-0.3-0.1L118,8.4l-0.3-0.1l-0.3,0l-0.3,0l-0.3,0l-0.3,0l-0.3,0h-1.9v-4H110.5z M93.1,9.1l-0.2-0.3l-0.3-0.2
		l-0.3-0.2L92,8.2l-0.3-0.1l-0.3-0.1L91,8l-0.3,0l-0.3,0.1l-0.3,0.1l-0.3,0.1l-0.3,0.2L89,8.8l-0.2,0.3l-0.2,0.3l-5.4,12.4h4.1
		l3.6-9.2l3.6,9.2h4.1L93.3,9.4L93.1,9.1z M74.1,17.6l0-0.1l0-0.1l0-0.3l0-0.2l0-0.2l0-0.1l0-0.1l0-0.1l0,0l0,0l0.1-0.1l0.1,0l0.1,0
		l0.1,0l0.1,0l0.1,0l0.1,0l0.1,0h3.9v2.3l0,0l0,0l0,0l-0.1,0h-3.8l-0.1,0l-0.1,0l-0.1,0l-0.1,0l-0.1,0l-0.1,0l0,0l0,0l0-0.1l0-0.1
		l0-0.1l0-0.1l0-0.1L74.1,17.6z M70.9,8.2v3.3h6.7l0.1,0l0.1,0l0.1,0l0.1,0l0.1,0l0.1,0.1l0.1,0.1l0.1,0.1l0.1,0.1l0,0.1l0,0.1
		l0,0.1l0,0.1l0,0.1l0,0.1l0,0.1v0.3H74l-0.3,0l-0.3,0l-0.3,0L72.7,13l-0.4,0.1L72,13.3l-0.4,0.2l-0.4,0.3l-0.4,0.4l-0.3,0.4
		L70.4,15l-0.2,0.5l-0.1,0.5l-0.1,0.5l0,0.4l0,0.4l0,0.2l0,0.2l0,0.2l0,0.2l0,0.2l0,0.2l0,0.3l0.1,0.3l0.1,0.3l0.1,0.3l0.1,0.3
		l0.1,0.3l0.1,0.3l0.2,0.2l0.2,0.2l0.2,0.2l0.3,0.3l0.4,0.2l0.4,0.1l0.4,0.1l0.3,0.1l0.3,0l0.3,0l0.3,0h5.9l0.2,0l0.3,0l0.3,0l0.3,0
		l0.3-0.1l0.3-0.1l0.3-0.2l0.3-0.2l0.2-0.3l0.2-0.3l0.1-0.3l0.1-0.3l0-0.3l0-0.2l0-0.2l0-0.2v-6.5l0-0.5l-0.1-0.5l-0.1-0.5l-0.1-0.4
		l-0.2-0.4L82,9.9l-0.2-0.3l-0.2-0.3l-0.3-0.3L81,8.8l-0.3-0.2l-0.4-0.2l-0.4-0.1l-0.4-0.1L79,8.2l-0.4,0H70.9z M64.4,17.4l-0.1,0.1
		l-0.1,0.1l-0.1,0.1L64,17.9l-0.2,0.1l-0.2,0.1l-0.2,0.1l-0.3,0.1l-0.3,0.1l-0.4,0h-2.5v-7l0,0l0,0h2.6l0.4,0l0.3,0.1l0.3,0.1
		l0.2,0.1l0.2,0.2l0.2,0.2l0.1,0.2l0.1,0.2l0,0.1l0,0.1l0,0.2l0,0.3l0,0.3l0,0.4l0,0.5l0,0.6l0,0.6l0,0.5l0,0.4l-0.1,0.3l-0.1,0.3
		L64.4,17.4z M59.9,21.8h2.9l0.2,0l0.3,0l0.3,0l0.3,0l0.3,0l0.3-0.1l0.3-0.1l0.3-0.1l0.3-0.1l0.3-0.1l0.3-0.2l0.3-0.2l0.3-0.2
		l0.3-0.3l0.3-0.3l0.3-0.3l0.2-0.3l0.2-0.3l0.1-0.3l0.1-0.3l0.1-0.3l0.1-0.3l0.1-0.3l0.1-0.3l0-0.3l0-0.3l0-0.3l0-0.3l0-0.3l0-0.3
		l0-0.3v-0.3v-0.3l0-0.3l0-0.3l0-0.3l0-0.3l0-0.3l0-0.3l-0.1-0.3L68.4,12l-0.1-0.3l-0.1-0.3L68,11l-0.2-0.3l-0.2-0.3L67.5,10
		l-0.3-0.3l-0.3-0.3l-0.3-0.2L66.4,9l-0.3-0.2l-0.3-0.1l-0.3-0.1l-0.3-0.1L65,8.4l-0.3-0.1l-0.3-0.1l-0.3,0l-0.2,0l-0.2,0l-0.2,0
		l-0.2,0l-0.2,0h-4.3l-0.2,0l-0.2,0l-0.2,0l-0.2,0l-0.2,0.1l-0.3,0.1l-0.3,0.1l-0.2,0.2l-0.2,0.1L56.6,9l-0.2,0.2l-0.1,0.2l-0.1,0.3
		L56,10L56,10.3l0,0.3v15.1h3.9V21.8z M55.4,8.2h-4.1l-3.8,8.5L44,8.2h-4.2l5.8,13l-2.2,4.7h4.1L55.4,8.2z M37.1,0h103.1h0l0,0
		c1.3,0,2.5,0.6,3.4,1.4c0.9,0.9,1.4,2.1,1.4,3.4l0,0v0v20.3v0l0,0c0,1.3-0.6,2.5-1.4,3.4c-0.9,0.9-2.1,1.4-3.4,1.4l0,0h0H37.1h0v0
		c-1.3,0-2.5-0.6-3.4-1.4l0,0c-0.9-0.9-1.4-2.1-1.4-3.4l0,0v0V4.9v0l0,0c0-1.3,0.6-2.5,1.4-3.4h0C34.5,0.6,35.7,0,37.1,0L37.1,0
		L37.1,0z"/>
	<path fill="#AB0873" d="M12.1,11.9c-1.4,1-2.5,2.5-2.5,4.4c0,1.6,0.8,3.1,2,4.2c0.8,0.7,1.3,0.7,1.3-0.1v-8.1
		C12.9,11.9,12.5,11.7,12.1,11.9 M17.4,7c-0.3-0.1-0.4-0.3-0.4-0.5l0-2.8c0-0.3-0.3-0.5-0.7-0.3c-1.2,0.8-2,1.4-3.2,2.2
		c-0.2,0.1-0.3,0.3-0.3,0.6v0.5c0,0.2-0.2,0.4-0.4,0.5c-0.5,0.2-1.1,0.4-1.6,0.6c-3.3,1.6-5.6,4.8-5.6,8.6c0,3.4,1.9,6.8,5,8.7
		c0.6,0.4,1.2,0.5,1.8-0.1c1.6-1.5,3.2-3,4.8-4.5c0.2-0.2,0.4-0.5,0.4-0.9v-7.1c0-0.6,0.4-0.5,0.7-0.3c1.5,1,2.5,2.6,2.5,4.3
		c0,1.4-0.5,2.6-1.4,3.6c-0.3,0.4-0.3,0.4-0.4,0.9l0,3.8c0,0.6,0.6,0.6,0.9,0.4c3.1-1.7,5.2-5.1,5.2-8.8C24.7,11.8,21.4,8.1,17.4,7
		 M4.3,0h21.2c2.4,0,4.3,2,4.3,4.3v21.3c0,2.4-1.9,4.3-4.3,4.3H4.3C1.9,30,0,28,0,25.7L0,4.3C0,2,1.9,0,4.3,0"/>
</g>
</svg>
