<?xml version="1.0" encoding="UTF-8" standalone="no"?>
<!-- Generator: Adobe Illustrator 19.2.0, SVG Export Plug-In . SVG Version: 6.00 Build 0)  -->

<svg
   xmlns:dc="http://purl.org/dc/elements/1.1/"
   xmlns:cc="http://creativecommons.org/ns#"
   xmlns:rdf="http://www.w3.org/1999/02/22-rdf-syntax-ns#"
   xmlns:svg="http://www.w3.org/2000/svg"
   xmlns="http://www.w3.org/2000/svg"
   xmlns:sodipodi="http://sodipodi.sourceforge.net/DTD/sodipodi-0.dtd"
   xmlns:inkscape="http://www.inkscape.org/namespaces/inkscape"
   version="1.1"
   id="Слой_1"
   x="0px"
   y="0px"
   viewBox="0 0 161.39305 86.699997"
   xml:space="preserve"
   sodipodi:docname="LOGOUSB_R_round.svg"
   width="161.39305"
   height="86.699997"
   inkscape:version="0.92.3 (2405546, 2018-03-11)"><metadata
   id="metadata919"><rdf:RDF><cc:Work
       rdf:about=""><dc:format>image/svg+xml</dc:format><dc:type
         rdf:resource="http://purl.org/dc/dcmitype/StillImage" /><dc:title></dc:title></cc:Work></rdf:RDF></metadata><defs
   id="defs917" /><sodipodi:namedview
   pagecolor="#ffffff"
   bordercolor="#666666"
   borderopacity="1"
   objecttolerance="10"
   gridtolerance="10"
   guidetolerance="10"
   inkscape:pageopacity="0"
   inkscape:pageshadow="2"
   inkscape:window-width="1920"
   inkscape:window-height="1017"
   id="namedview915"
   showgrid="false"
   fit-margin-top="0"
   fit-margin-left="0"
   fit-margin-right="0"
   fit-margin-bottom="0"
   inkscape:zoom="7.1260504"
   inkscape:cx="79.04305"
   inkscape:cy="56.826415"
   inkscape:window-x="-8"
   inkscape:window-y="-8"
   inkscape:window-maximized="1"
   inkscape:current-layer="Слой_1" />
<style
   type="text/css"
   id="style868">
	.st0{fill:#3A458C;}
	.st1{fill:#FFFFFF;}
	.st2{fill:none;stroke:#3A458C;stroke-width:5;stroke-miterlimit:10;}
</style>
<path
   class="st0"
   d="m 120.49305,24.8 c 1.1,-4.4 -2.7,-7.9 -8.4,-7.9 H 33.193052 c -5.7,0 -11.2,3.5 -12.2,7.9 l -10.9,44.4 c -1.1000004,4.4 2.7,7.9 8.4,7.9 h 78.9 c 5.699998,0 11.199998,-3.5 12.199998,-7.9 z"
   id="path870"
   inkscape:connector-curvature="0"
   style="fill:#3a458c" />
<path
   class="st1"
   d="m 48.193052,70.1 h 1.7 c 2.8,0 3.8,-2.7 4.5,-6.1 l 7,-33.9 c 0.7,-3.3 0.9,-6.1 -1.3,-6.1 h -1.6 z"
   id="path872"
   inkscape:connector-curvature="0"
   style="fill:#ffffff" />
<path
   class="st1"
   d="m 46.693052,70.1 h -12.7 c -3.2,0 -4,-2.7 -3.3,-6.1 l 7.7,-33.9 c 0.8,-3.3 2,-6.1 5,-6.1 h 13.6 z"
   id="path874"
   inkscape:connector-curvature="0"
   style="fill:#ffffff" />
<path
   class="st2"
   d="m 128.49305,20.3 c 1.2,-5.3 -3,-9.7 -9.5,-9.7 H 28.993052 c -6.5,0 -12.7,4.3 -13.9,9.7 L 2.6930516,74.5 c -1.2,5.3 3,9.7 9.5000004,9.7 h 89.999998 c 6.5,0 12.7,-4.3 13.9,-9.7 z"
   id="path876"
   inkscape:connector-curvature="0"
   style="fill:none;stroke:#3a458c;stroke-width:5;stroke-miterlimit:10" />
<polygon
   class="st1"
   points="51,42.5 56.6,42.5 47.2,88.5 40.9,88.5 "
   id="polygon878"
   style="fill:#ffffff"
   transform="translate(-19.806948,-18.4)" />
<polygon
   class="st1"
   points="47,42.5 49.4,42.5 39.5,88.5 37.2,88.5 "
   id="polygon880"
   style="fill:#ffffff"
   transform="translate(-19.806948,-18.4)" />
<rect
   x="28.993052"
   y="42.299999"
   class="st1"
   width="13.7"
   height="6.9000001"
   id="rect882"
   style="fill:#ffffff" />
<path
   class="st0"
   d="m 43.493052,62.6 c -0.1,0.5 -0.7,0.9 -1.3,0.9 v 0 c -0.6,0 -1,-0.4 -0.9,-0.9 l 6.7,-31.2 c 0.1,-0.5 0.7,-0.9 1.3,-0.9 v 0 c 0.6,0 1,0.4 0.9,0.9 z"
   id="path884"
   inkscape:connector-curvature="0"
   style="fill:#3a458c" />
<path
   class="st1"
   d="m 74.193052,70.1 h 1.7 c 2.8,0 3.8,-2.7 4.5,-6.1 l 7,-33.9 c 0.7,-3.3 0.9,-6.1 -1.3,-6.1 h -1.6 z"
   id="path886"
   inkscape:connector-curvature="0"
   style="fill:#ffffff" />
<path
   class="st1"
   d="m 72.693052,70.1 h -12.7 c -3.2,0 -4,-2.7 -3.3,-6.1 l 7.7,-33.9 c 0.8,-3.3 2,-6.1 5,-6.1 h 13.6 z"
   id="path888"
   inkscape:connector-curvature="0"
   style="fill:#ffffff" />
<path
   class="st0"
   d="m 69.493052,62.6 c -0.1,0.5 -0.7,0.9 -1.3,0.9 v 0 c -0.6,0 -1,-0.4 -0.9,-0.9 l 6.7,-31.2 c 0.1,-0.5 0.7,-0.9 1.3,-0.9 v 0 c 0.6,0 1,0.4 0.9,0.9 z"
   id="path890"
   inkscape:connector-curvature="0"
   style="fill:#3a458c" />
<polygon
   class="st0"
   points="93.6,59.6 105.7,59.6 103.4,69.7 91.3,69.7 "
   id="polygon892"
   style="fill:#3a458c"
   transform="translate(-19.806948,-18.4)" />
<path
   class="st1"
   d="m 109.99305,45.4 -3.7,17.9 c -0.8,3.8 -1.9,6.8 -4.7,6.8 h -1.599998 l 6.299998,-27.3 h 1.3 c 0,0 1.7,-0.1 2.3,0.9 0.4,0.8 0.1,1.7 0.1,1.7 z"
   id="path894"
   inkscape:connector-curvature="0"
   style="fill:#ffffff" />
<path
   class="st1"
   d="m 113.39305,30.5 0.1,-0.4 c 0.7,-3.3 0.9,-6.1 -1.3,-6.1 h -1.6 l -1.4,6.4"
   id="path896"
   inkscape:connector-curvature="0"
   style="fill:#ffffff" />
<path
   class="st1"
   d="m 98.693052,70.1 h -12.7 c -3.2,0 -4,-2.7 -3.3,-6.1 l 7.7,-33.9 c 0.8,-3.3 2,-6.1 5,-6.1 h 13.599998 z"
   id="path898"
   inkscape:connector-curvature="0"
   style="fill:#ffffff" />
<path
   class="st0"
   d="m 93.293052,63.1 c -0.1,0.2 -0.6,0.4 -1.2,0.4 v 0 c -0.6,0 -1,-0.2 -1,-0.4 l 3.1,-14.6 c 0.1,-0.2 0.6,-0.4 1.2,-0.4 v 0 c 0.6,0 1,0.2 1,0.4 z"
   id="path900"
   inkscape:connector-curvature="0"
   style="fill:#3a458c" />
<path
   class="st0"
   d="m 105.89305,42.9 2.9,-12.3 c 0,0 -8.999998,0 -9.599998,0 v 0 c -0.6,0 -1.1,0.4 -1.3,0.9 l -2.4,11.4 z"
   id="path902"
   inkscape:connector-curvature="0"
   style="fill:#3a458c" />
<line
   class="st1"
   x1="109.09305"
   y1="30.500002"
   x2="113.39305"
   y2="30.500002"
   id="line904"
   style="fill:#ffffff" />
<g
   id="g912"
   transform="translate(-19.806948,-18.4)">
	<g
   id="g908">
		<path
   class="st0"
   d="m 167.2,24.1 c 0.7,-0.1 1.8,-0.2 3,-0.2 1.5,0 2.5,0.2 3.2,0.8 0.6,0.5 0.9,1.2 0.9,2.1 0,1.2 -0.9,2.1 -1.7,2.4 v 0 c 0.7,0.3 1.1,0.9 1.3,1.8 0.3,1.1 0.6,2.4 0.8,2.8 h -2.3 c -0.1,-0.3 -0.4,-1.1 -0.7,-2.3 -0.3,-1.2 -0.7,-1.6 -1.6,-1.6 h -0.7 v 3.9 h -2.2 z m 2.2,4.3 h 0.9 c 1.1,0 1.8,-0.6 1.8,-1.4 0,-0.9 -0.6,-1.4 -1.6,-1.4 -0.5,0 -0.9,0 -1,0.1 v 2.7 z"
   id="path906"
   inkscape:connector-curvature="0"
   style="fill:#3a458c" />
	</g>
	<path
   class="st0"
   d="M 170.6,39.6 C 164.8,39.6 160,34.9 160,29 c 0,-5.9 4.7,-10.6 10.6,-10.6 5.9,0 10.6,4.7 10.6,10.6 0,5.9 -4.8,10.6 -10.6,10.6 z m 0,-19.2 c -4.7,0 -8.6,3.9 -8.6,8.6 0,4.7 3.9,8.6 8.6,8.6 4.7,0 8.6,-3.9 8.6,-8.6 0,-4.7 -3.9,-8.6 -8.6,-8.6 z"
   id="path910"
   inkscape:connector-curvature="0"
   style="fill:#3a458c" />
</g>
</svg>